<svg xmlns="http://www.w3.org/2000/svg" version="1.1" xmlns:xlink="http://www.w3.org/1999/xlink" xmlns:svgjs="http://svgjs.dev/svgjs" viewBox="0 0 16.10816596994553 5.762639846898658"><g transform="matrix(0.7597208419214406,0,0,0.7597208419214406,5.924793086307188,2.167806838897362)"><g clip-path="url(#SvgjsClipPath12944)"><path d=" M -4.3400726954949755 -1.0308583692318627 L -0.40000000000000036 -1.0308583692318627 L -0.40000000000000036 2.9092143262631125 L -4.3400726954949755 2.9092143262631125 Z M -4.261271241585076 -0.9520569153219631 L -4.261271241585076 2.8304128723532123 L -0.4788014539099006 2.8304128723532123 L -0.4788014539099006 -0.9520569153219635 Z" fill="#ffffff" transform="matrix(1,0,0,1,0,0)" fill-rule="nonzero"></path><g clip-path="url(#SvgjsClipPath12942083873e9-bc11-4209-b71a-09a935605a48)"><path d=" M -3.786960204116291 -0.4040728192745715 C -3.7370334929322335 -0.04971819502097852 -3.753036712543818 -0.214534686999869 -3.7341217960306814 0.11605960146930183 C -3.6890516174648615 0.15678446137669844 -3.583369244620166 0.24985318543031876 -3.45781620742442 0.36279257383499 C -3.522290289769286 0.18731838212866236 -3.5033809299296252 0.25906059338045595 -3.4011047979258677 -0.06087043868780162 C -3.286215017131035 0.29832404816360003 -3.277007609180898 0.16405814695710252 -3.372504599543637 0.4403581788898874 C -3.095710023671466 0.6919421272003368 -2.7709280156584475 1.0007264722752476 -2.7685053060228046 1.0724742402005183 C -2.7680218754303714 1.0884719031386263 -2.781107841466927 1.4433099579846522 -2.784986399553346 1.544619228803544 C -2.4873487414717816 1.8621553346035395 -2.508191823681175 1.72397197859629 -2.53388588183533 2.0948188097273763 C -2.441784018966576 2.203868526698676 -2.484437044570229 2.1471571172001234 -2.3962192964613704 2.2824287763058217 C -2.6570162093954335 2.111788890523828 -2.6085342333151997 2.1626880195662275 -2.622109186617665 1.8795921759719953 C -3.0263849653818387 1.5140964213985328 -2.9265259863402475 1.6929490705784156 -2.9415567880934894 1.109320542021496 L -3.378316879999789 0.6643087900029732 C -3.928027473657712 0.08649254190220468 -3.886819183157882 0.3075314561137372 -3.786960204116291 -0.4040728192745715 Z M -1.6162568239683015 1.2101519389214292 L -1.4616257144713676 1.188336438853693 L -1.4398213277505834 1.0336942160098062 L -1.5944413239005653 1.0555097160775428 L -1.6162568239683015 1.2101519389214292 Z M -2.180498118766604 1.2091795210630867 C -2.1363892447121744 0.9895742286084253 -2.1073056157375105 0.8868202226857107 -2.0947141936403404 0.8184675822544258 C -1.6065659854257306 0.5252030261986664 -1.6434122872467092 0.5620437713461675 -1.79513169984209 -0.06086488201432505 C -1.8799709904773927 0.28766634843616345 -1.8542658189762853 0.13157939048845302 -1.8852942836676352 0.4471539905513351 C -2.0394586325925648 0.6352362743752613 -2.0215216906112468 0.6037243790914784 -2.0884073692448024 0.7161803369037165 C -2.0952031809062497 0.6454105435102651 -2.1257315449847374 0.5528252500490778 -2.1805036754400797 0.28233749857244494 C -2.3060455992888738 0.8998950753753141 -2.3060455992888738 0.5911107303004031 -2.180498118766604 1.2091795210630867 Z M -1.2822674080051453 0.36279257383498953 C -1.2177877689868026 0.18731838212866214 -1.2366915721529872 0.25906059338045595 -1.3389788175036972 -0.06087043868780162 C -1.4538630416250538 0.29832404816360003 -1.4630760062486665 0.16405814695710252 -1.3675845725594047 0.4403581788898874 C -1.6443735917580993 0.6919421272003368 -1.9691555997711183 1.0007264722752476 -1.9715727527332847 1.0724742402005183 C -1.9720617399991935 1.0884719031386263 -1.9589591039422092 1.4433099579846522 -1.955086102529267 1.544619228803544 C -2.2527348739577837 1.8621553346035395 -2.2313916911355287 1.72397197859629 -2.2061866202472826 2.0948188097273763 C -2.298288483116037 2.203868526698676 -2.2556354575123834 2.1471571172001234 -2.34384209227429 2.2824287763058217 C -2.0830562926871794 2.111788890523828 -2.1315382687674136 2.1626880195662275 -2.117963315464948 1.8795921759719953 C -1.7136875367007742 1.5140964213985328 -1.8135409590688893 1.6929490705784156 -1.7985101573156475 1.109320542021496 L -1.3617500654093475 0.6643087900029732 C -0.812050585098377 0.08649809857568114 -0.8532477622512551 0.3075370127872141 -0.9531178546397987 -0.4040728192745707 C -1.0030278958034269 -0.04971819502097807 -0.9870469028857478 -0.21453468699986833 -1.005956262725408 0.1160596014693025 C -1.0510375546381794 0.15678446137669821 -1.1567199274828748 0.24985318543031876 -1.2822674080051453 0.36279257383498953 Z M -3.123826791461264 1.2101519389214292 L -3.2784634576316742 1.188336438853693 L -3.30027895769941 1.0336942160098062 L -3.1456367348555236 1.0555097160775428 L -3.123826791461264 1.2101519389214292 Z M -2.5595799399894847 1.2091795210630867 C -2.603688814043914 0.9895742286084253 -2.6327724430185784 0.8868202226857107 -2.645374978462701 0.8184675822544258 C -3.1335176300038343 0.5252030261986664 -3.0966768848563326 0.5620437713461675 -2.944951915587475 -0.06086488201432505 C -2.860123738299125 0.28766634843616345 -2.88581779645328 0.13157939048845302 -2.85478933176193 0.4471539905513351 C -2.7006360961839535 0.6352362743752613 -2.718573038165271 0.6037243790914784 -2.6516818028582385 0.7161803369037165 C -2.6448915478702677 0.6454105435102651 -2.614357627118304 0.5528252500490778 -2.5595799399894847 0.28233749857244494 C -2.4340324594672147 0.8998950753753141 -2.4340324594672147 0.5911107303004031 -2.5595799399894847 1.2091795210630867 Z" fill="#ffffff" transform="matrix(1,0,0,1,0,0)" fill-rule="nonzero"></path></g></g><g><path d=" M 0.954345703125 0.18310546875 L 0.94775390625 0.18603515625 Q 0.890625 0.13330078125 0.8104248046875 0.101806640625 Q 0.730224609375 0.0703125 0.63427734375 0.0703125 Q 0.5419921875 0.0703125 0.465087890625 0.0992431640625 Q 0.38818359375 0.128173828125 0.3328857421875 0.18310546875 Q 0.277587890625 0.238037109375 0.246826171875 0.31787109375 Q 0.216064453125 0.397705078125 0.216064453125 0.49951171875 Q 0.216064453125 0.611572265625 0.245361328125 0.7086181640625 Q 0.274658203125 0.8056640625 0.33251953125 0.876708984375 Q 0.390380859375 0.94775390625 0.4771728515625 0.9884033203125 Q 0.56396484375 1.029052734375 0.6796875 1.029052734375 Q 0.721435546875 1.029052734375 0.76318359375 1.020263671875 Q 0.804931640625 1.011474609375 0.8433837890625 0.9942626953125 Q 0.8818359375 0.97705078125 0.9158935546875 0.9525146484375 Q 0.949951171875 0.927978515625 0.977783203125 0.896484375 L 0.98583984375 0.901611328125 L 0.92724609375 1.051025390625 Q 0.872314453125 1.072265625 0.8060302734375 1.0836181640625 Q 0.73974609375 1.094970703125 0.67236328125 1.094970703125 Q 0.536865234375 1.094970703125 0.4244384765625 1.0557861328125 Q 0.31201171875 1.0166015625 0.2310791015625 0.94482421875 Q 0.150146484375 0.873046875 0.1051025390625 0.7723388671875 Q 0.06005859375 0.671630859375 0.06005859375 0.548583984375 Q 0.06005859375 0.47900390625 0.0780029296875 0.41162109375 Q 0.095947265625 0.34423828125 0.13037109375 0.283447265625 Q 0.164794921875 0.22265625 0.21533203125 0.1717529296875 Q 0.265869140625 0.120849609375 0.3306884765625 0.08349609375 Q 0.3955078125 0.046142578125 0.4735107421875 0.0252685546875 Q 0.551513671875 0.00439453125 0.642333984375 0.00439453125 Q 0.78369140625 0.00439453125 0.904541015625 0.047607421875 L 0.954345703125 0.18310546875 M 1.8603515625 1.072265625 L 1.8603515625 1.0693359375 Q 1.86181640625 1.065673828125 1.862548828125 1.058349609375 Q 1.86328125 1.051025390625 1.86328125 1.045166015625 Q 1.86328125 1.0224609375 1.8570556640625 0.9949951171875 Q 1.850830078125 0.967529296875 1.833251953125 0.926513671875 L 1.74462890625 0.727294921875 Q 1.70361328125 0.725830078125 1.635498046875 0.725830078125 Q 1.5673828125 0.725830078125 1.48828125 0.725830078125 Q 1.430419921875 0.725830078125 1.3765869140625 0.725830078125 Q 1.32275390625 0.725830078125 1.279541015625 0.727294921875 L 1.1953125 0.920654296875 Q 1.184326171875 0.94775390625 1.171875 0.97998046875 Q 1.159423828125 1.01220703125 1.159423828125 1.045166015625 Q 1.159423828125 1.0546875 1.160888671875 1.0609130859375 Q 1.162353515625 1.067138671875 1.163818359375 1.0693359375 L 1.163818359375 1.072265625 L 1.014404296875 1.072265625 L 1.014404296875 1.0693359375 Q 1.027587890625 1.055419921875 1.04736328125 1.0198974609375 Q 1.067138671875 0.984375 1.090576171875 0.930908203125 L 1.51025390625 0 L 1.56884765625 0 L 1.966552734375 0.89501953125 Q 1.98046875 0.926513671875 1.9954833984375 0.9561767578125 Q 2.010498046875 0.98583984375 2.023681640625 1.00927734375 Q 2.036865234375 1.03271484375 2.047119140625 1.048828125 Q 2.057373046875 1.06494140625 2.06103515625 1.0693359375 L 2.06103515625 1.072265625 L 1.8603515625 1.072265625 M 1.3857421875 0.662841796875 Q 1.42822265625 0.662841796875 1.472900390625 0.6624755859375 Q 1.517578125 0.662109375 1.5604248046875 0.6617431640625 Q 1.603271484375 0.661376953125 1.642822265625 0.6610107421875 Q 1.682373046875 0.66064453125 1.714599609375 0.659912109375 L 1.5087890625 0.19482421875 L 1.306640625 0.662841796875 L 1.3857421875 0.662841796875 M 2.304931640625 0.785888671875 Q 2.304931640625 0.84814453125 2.3067626953125 0.8946533203125 Q 2.30859375 0.941162109375 2.3111572265625 0.974853515625 Q 2.313720703125 1.008544921875 2.3177490234375 1.03125 Q 2.32177734375 1.053955078125 2.326171875 1.0693359375 L 2.326171875 1.072265625 L 2.150390625 1.072265625 L 2.150390625 1.0693359375 Q 2.15478515625 1.053955078125 2.1588134765625 1.03125 Q 2.162841796875 1.008544921875 2.1654052734375 0.974853515625 Q 2.16796875 0.941162109375 2.1697998046875 0.89501953125 Q 2.171630859375 0.848876953125 2.171630859375 0.785888671875 L 2.171630859375 0.30908203125 Q 2.171630859375 0.246826171875 2.1697998046875 0.2003173828125 Q 2.16796875 0.15380859375 2.1654052734375 0.1201171875 Q 2.162841796875 0.08642578125 2.1588134765625 0.0633544921875 Q 2.15478515625 0.040283203125 2.150390625 0.02490234375 L 2.150390625 0.02197265625 L 2.18115234375 0.02490234375 Q 2.195068359375 0.0263671875 2.2122802734375 0.0267333984375 Q 2.2294921875 0.027099609375 2.247802734375 0.027099609375 Q 2.2763671875 0.027099609375 2.3250732421875 0.0201416015625 Q 2.373779296875 0.01318359375 2.44921875 0.01318359375 Q 2.51953125 0.01318359375 2.5792236328125 0.0322265625 Q 2.638916015625 0.05126953125 2.682861328125 0.087890625 Q 2.726806640625 0.12451171875 2.7513427734375 0.1776123046875 Q 2.77587890625 0.230712890625 2.77587890625 0.298095703125 Q 2.77587890625 0.350830078125 2.7623291015625 0.3958740234375 Q 2.748779296875 0.44091796875 2.7242431640625 0.4775390625 Q 2.69970703125 0.51416015625 2.665283203125 0.5423583984375 Q 2.630859375 0.570556640625 2.58837890625 0.589599609375 L 2.845458984375 0.95068359375 Q 2.864501953125 0.977783203125 2.8809814453125 0.99755859375 Q 2.8974609375 1.017333984375 2.9124755859375 1.0316162109375 Q 2.927490234375 1.0458984375 2.94140625 1.0550537109375 Q 2.955322265625 1.064208984375 2.969970703125 1.0693359375 L 2.969970703125 1.072265625 L 2.75830078125 1.072265625 Q 2.756103515625 1.058349609375 2.7440185546875 1.0352783203125 Q 2.73193359375 1.01220703125 2.7158203125 0.989501953125 L 2.45654296875 0.6240234375 Q 2.439697265625 0.62548828125 2.4228515625 0.6265869140625 Q 2.406005859375 0.627685546875 2.388427734375 0.627685546875 Q 2.367919921875 0.627685546875 2.3470458984375 0.626220703125 Q 2.326171875 0.624755859375 2.304931640625 0.62109375 L 2.304931640625 0.785888671875 M 2.304931640625 0.56396484375 Q 2.32470703125 0.568359375 2.34521484375 0.5701904296875 Q 2.36572265625 0.572021484375 2.384765625 0.572021484375 Q 2.439697265625 0.572021484375 2.485107421875 0.5555419921875 Q 2.530517578125 0.5390625 2.5623779296875 0.50537109375 Q 2.59423828125 0.4716796875 2.61181640625 0.4215087890625 Q 2.62939453125 0.371337890625 2.62939453125 0.303955078125 Q 2.62939453125 0.2490234375 2.616943359375 0.204345703125 Q 2.6044921875 0.15966796875 2.5799560546875 0.1285400390625 Q 2.555419921875 0.097412109375 2.51806640625 0.0802001953125 Q 2.480712890625 0.06298828125 2.430908203125 0.06298828125 Q 2.38037109375 0.06298828125 2.350341796875 0.068115234375 Q 2.3203125 0.0732421875 2.304931640625 0.0791015625 L 2.304931640625 0.56396484375 M 3.035888671875 0.02197265625 Q 3.12744140625 0.02197265625 3.2178955078125 0.021240234375 Q 3.308349609375 0.0205078125 3.3837890625 0.0194091796875 Q 3.459228515625 0.018310546875 3.5126953125 0.01611328125 Q 3.566162109375 0.013916015625 3.585205078125 0.01025390625 L 3.54931640625 0.107666015625 Q 3.525146484375 0.10107421875 3.492919921875 0.095947265625 Q 3.465087890625 0.091552734375 3.4251708984375 0.0875244140625 Q 3.38525390625 0.08349609375 3.333251953125 0.08349609375 Q 3.315673828125 0.08349609375 3.2911376953125 0.0845947265625 Q 3.2666015625 0.085693359375 3.243896484375 0.087158203125 Q 3.217529296875 0.088623046875 3.1904296875 0.090087890625 L 3.1904296875 0.489990234375 Q 3.265869140625 0.4892578125 3.32666015625 0.485595703125 Q 3.387451171875 0.48193359375 3.429931640625 0.478271484375 Q 3.479736328125 0.473876953125 3.517822265625 0.468017578125 L 3.4951171875 0.57421875 Q 3.444580078125 0.567626953125 3.391845703125 0.561767578125 Q 3.346435546875 0.556640625 3.29296875 0.5526123046875 Q 3.239501953125 0.548583984375 3.1904296875 0.548583984375 L 3.1904296875 1.0078125 Q 3.27685546875 1.0078125 3.349365234375 1.00048828125 Q 3.421875 0.9931640625 3.47607421875 0.983642578125 Q 3.5390625 0.973388671875 3.591064453125 0.95947265625 L 3.56982421875 1.078125 Q 3.56103515625 1.077392578125 3.54345703125 1.07666015625 Q 3.52587890625 1.075927734375 3.5042724609375 1.0751953125 Q 3.482666015625 1.074462890625 3.4588623046875 1.0740966796875 Q 3.43505859375 1.07373046875 3.413818359375 1.0733642578125 Q 3.392578125 1.072998046875 3.3760986328125 1.0726318359375 Q 3.359619140625 1.072265625 3.352294921875 1.072265625 L 3.035888671875 1.072265625 L 3.035888671875 1.0693359375 Q 3.040283203125 1.053955078125 3.0443115234375 1.03125 Q 3.04833984375 1.008544921875 3.05126953125 0.974853515625 Q 3.05419921875 0.941162109375 3.0556640625 0.8946533203125 Q 3.05712890625 0.84814453125 3.05712890625 0.785888671875 L 3.05712890625 0.30908203125 Q 3.05712890625 0.246826171875 3.0556640625 0.2003173828125 Q 3.05419921875 0.15380859375 3.05126953125 0.1197509765625 Q 3.04833984375 0.085693359375 3.0443115234375 0.06298828125 Q 3.040283203125 0.040283203125 3.035888671875 0.02490234375 L 3.035888671875 0.02197265625 L 3.035888671875 0.02197265625 M 3.791748046875 0.30908203125 Q 3.791748046875 0.246826171875 3.790283203125 0.2003173828125 Q 3.788818359375 0.15380859375 3.785888671875 0.1197509765625 Q 3.782958984375 0.085693359375 3.7789306640625 0.06298828125 Q 3.77490234375 0.040283203125 3.7705078125 0.02490234375 L 3.7705078125 0.02197265625 Q 3.78515625 0.022705078125 3.80126953125 0.022705078125 Q 3.815185546875 0.0234375 3.8323974609375 0.0234375 Q 3.849609375 0.0234375 3.867919921875 0.0234375 Q 3.894287109375 0.0234375 3.9393310546875 0.018310546875 Q 3.984375 0.01318359375 4.055419921875 0.01318359375 Q 4.121337890625 0.01318359375 4.177001953125 0.0303955078125 Q 4.232666015625 0.047607421875 4.2733154296875 0.079833984375 Q 4.31396484375 0.112060546875 4.3370361328125 0.1593017578125 Q 4.360107421875 0.20654296875 4.360107421875 0.2666015625 Q 4.360107421875 0.317138671875 4.34619140625 0.3570556640625 Q 4.332275390625 0.39697265625 4.3070068359375 0.4266357421875 Q 4.28173828125 0.456298828125 4.2462158203125 0.4764404296875 Q 4.210693359375 0.49658203125 4.168212890625 0.50830078125 Q 4.23046875 0.517822265625 4.28173828125 0.5401611328125 Q 4.3330078125 0.5625 4.3699951171875 0.59619140625 Q 4.406982421875 0.6298828125 4.4271240234375 0.6749267578125 Q 4.447265625 0.719970703125 4.447265625 0.77490234375 Q 4.447265625 0.929443359375 4.345458984375 1.0067138671875 Q 4.24365234375 1.083984375 4.040771484375 1.083984375 Q 4.018798828125 1.083984375 3.989501953125 1.0821533203125 Q 3.960205078125 1.080322265625 3.9298095703125 1.078125 Q 3.8994140625 1.075927734375 3.8701171875 1.0740966796875 Q 3.8408203125 1.072265625 3.81884765625 1.072265625 L 3.7705078125 1.072265625 L 3.7705078125 1.0693359375 Q 3.77490234375 1.053955078125 3.7789306640625 1.03125 Q 3.782958984375 1.008544921875 3.785888671875 0.974853515625 Q 3.788818359375 0.941162109375 3.790283203125 0.8946533203125 Q 3.791748046875 0.84814453125 3.791748046875 0.785888671875 L 3.791748046875 0.30908203125 M 4.060546875 0.552978515625 Q 4.0107421875 0.552978515625 3.97705078125 0.556640625 Q 3.943359375 0.560302734375 3.925048828125 0.56396484375 L 3.925048828125 0.785888671875 Q 3.925048828125 0.87158203125 3.927978515625 0.92724609375 Q 3.930908203125 0.98291015625 3.93603515625 1.01806640625 Q 3.9638671875 1.021728515625 3.99169921875 1.024658203125 Q 4.01953125 1.027587890625 4.036376953125 1.027587890625 Q 4.17333984375 1.027587890625 4.2366943359375 0.9664306640625 Q 4.300048828125 0.9052734375 4.300048828125 0.778564453125 Q 4.300048828125 0.728759765625 4.2850341796875 0.6873779296875 Q 4.27001953125 0.64599609375 4.2403564453125 0.615966796875 Q 4.210693359375 0.5859375 4.1656494140625 0.5694580078125 Q 4.12060546875 0.552978515625 4.060546875 0.552978515625 M 3.925048828125 0.498046875 Q 3.945556640625 0.500244140625 3.961669921875 0.5006103515625 Q 3.977783203125 0.5009765625 3.99609375 0.5009765625 Q 4.0458984375 0.5009765625 4.0869140625 0.4866943359375 Q 4.1279296875 0.472412109375 4.1568603515625 0.44384765625 Q 4.185791015625 0.415283203125 4.201904296875 0.3724365234375 Q 4.218017578125 0.32958984375 4.218017578125 0.2724609375 Q 4.218017578125 0.224853515625 4.206298828125 0.18603515625 Q 4.194580078125 0.147216796875 4.1715087890625 0.1197509765625 Q 4.1484375 0.09228515625 4.11474609375 0.07763671875 Q 4.0810546875 0.06298828125 4.037841796875 0.06298828125 Q 4.010009765625 0.06298828125 3.9891357421875 0.065185546875 Q 3.96826171875 0.0673828125 3.95361328125 0.0703125 Q 3.936767578125 0.0732421875 3.925048828125 0.07763671875 L 3.925048828125 0.498046875 M 5.09033203125 0.00439453125 Q 5.212646484375 0.00439453125 5.3162841796875 0.0443115234375 Q 5.419921875 0.084228515625 5.495361328125 0.1563720703125 Q 5.57080078125 0.228515625 5.61328125 0.32958984375 Q 5.65576171875 0.4306640625 5.65576171875 0.552978515625 Q 5.65576171875 0.62255859375 5.6396484375 0.68994140625 Q 5.62353515625 0.75732421875 5.5924072265625 0.8173828125 Q 5.561279296875 0.87744140625 5.515869140625 0.9283447265625 Q 5.470458984375 0.979248046875 5.4122314453125 1.0162353515625 Q 5.35400390625 1.05322265625 5.28369140625 1.0740966796875 Q 5.21337890625 1.094970703125 5.132080078125 1.094970703125 Q 5.009765625 1.094970703125 4.9061279296875 1.0557861328125 Q 4.802490234375 1.0166015625 4.72705078125 0.94482421875 Q 4.651611328125 0.873046875 4.609130859375 0.7723388671875 Q 4.566650390625 0.671630859375 4.566650390625 0.548583984375 Q 4.566650390625 0.47900390625 4.582763671875 0.41162109375 Q 4.598876953125 0.34423828125 4.6300048828125 0.283447265625 Q 4.6611328125 0.22265625 4.7061767578125 0.1717529296875 Q 4.751220703125 0.120849609375 4.8094482421875 0.08349609375 Q 4.86767578125 0.046142578125 4.9383544921875 0.0252685546875 Q 5.009033203125 0.00439453125 5.09033203125 0.00439453125 M 5.132080078125 1.029052734375 Q 5.21337890625 1.029052734375 5.28076171875 0.999755859375 Q 5.34814453125 0.970458984375 5.3968505859375 0.914794921875 Q 5.445556640625 0.859130859375 5.47265625 0.7789306640625 Q 5.499755859375 0.69873046875 5.499755859375 0.596923828125 Q 5.499755859375 0.484130859375 5.4737548828125 0.3878173828125 Q 5.44775390625 0.29150390625 5.396484375 0.2208251953125 Q 5.34521484375 0.150146484375 5.2686767578125 0.1102294921875 Q 5.192138671875 0.0703125 5.09033203125 0.0703125 Q 5.009033203125 0.0703125 4.941650390625 0.0992431640625 Q 4.874267578125 0.128173828125 4.8255615234375 0.18310546875 Q 4.77685546875 0.238037109375 4.749755859375 0.31787109375 Q 4.72265625 0.397705078125 4.72265625 0.49951171875 Q 4.72265625 0.611572265625 4.748291015625 0.7086181640625 Q 4.77392578125 0.8056640625 4.8251953125 0.876708984375 Q 4.87646484375 0.94775390625 4.953369140625 0.9884033203125 Q 5.0302734375 1.029052734375 5.132080078125 1.029052734375 M 5.86083984375 0.02197265625 L 6.615234375 0.82470703125 L 6.615234375 0.30908203125 Q 6.615234375 0.246826171875 6.61376953125 0.2003173828125 Q 6.6123046875 0.15380859375 6.609375 0.1197509765625 Q 6.6064453125 0.085693359375 6.6024169921875 0.06298828125 Q 6.598388671875 0.040283203125 6.593994140625 0.02490234375 L 6.593994140625 0.02197265625 L 6.724365234375 0.02197265625 L 6.724365234375 0.02490234375 Q 6.719970703125 0.040283203125 6.71630859375 0.06298828125 Q 6.712646484375 0.085693359375 6.709716796875 0.1197509765625 Q 6.706787109375 0.15380859375 6.705322265625 0.2003173828125 Q 6.703857421875 0.246826171875 6.703857421875 0.30908203125 L 6.703857421875 1.0869140625 L 6.67822265625 1.0869140625 L 5.923828125 0.284912109375 L 5.923828125 0.785888671875 Q 5.923828125 0.84814453125 5.92529296875 0.8946533203125 Q 5.9267578125 0.941162109375 5.9296875 0.974853515625 Q 5.9326171875 1.008544921875 5.936279296875 1.03125 Q 5.93994140625 1.053955078125 5.9443359375 1.0693359375 L 5.9443359375 1.072265625 L 5.81396484375 1.072265625 L 5.81396484375 1.0693359375 Q 5.818359375 1.053955078125 5.8223876953125 1.03125 Q 5.826416015625 1.008544921875 5.829345703125 0.974853515625 Q 5.832275390625 0.941162109375 5.833740234375 0.8946533203125 Q 5.835205078125 0.84814453125 5.835205078125 0.785888671875 L 5.835205078125 0.30908203125 Q 5.835205078125 0.246826171875 5.833740234375 0.2003173828125 Q 5.832275390625 0.15380859375 5.829345703125 0.1197509765625 Q 5.826416015625 0.085693359375 5.8223876953125 0.06298828125 Q 5.818359375 0.040283203125 5.81396484375 0.02490234375 L 5.81396484375 0.02197265625 L 5.86083984375 0.02197265625 M 7.087646484375 0.0849609375 Q 7.086181640625 0.1669921875 7.084716796875 0.243896484375 Q 7.083984375 0.27685546875 7.0836181640625 0.311279296875 Q 7.083251953125 0.345703125 7.0828857421875 0.3790283203125 Q 7.08251953125 0.412353515625 7.0821533203125 0.4427490234375 Q 7.081787109375 0.47314453125 7.081787109375 0.49658203125 Q 7.081787109375 0.545654296875 7.08251953125 0.615234375 Q 7.083251953125 0.684814453125 7.0843505859375 0.758056640625 Q 7.08544921875 0.831298828125 7.087646484375 0.898681640625 Q 7.08984375 0.966064453125 7.0927734375 1.0107421875 Q 7.10302734375 1.01220703125 7.1202392578125 1.0140380859375 Q 7.137451171875 1.015869140625 7.156494140625 1.0169677734375 Q 7.175537109375 1.01806640625 7.19384765625 1.018798828125 Q 7.212158203125 1.01953125 7.224609375 1.01953125 Q 7.27587890625 1.01953125 7.3297119140625 1.0125732421875 Q 7.383544921875 1.005615234375 7.4337158203125 0.986572265625 Q 7.48388671875 0.967529296875 7.5281982421875 0.9342041015625 Q 7.572509765625 0.90087890625 7.6058349609375 0.84814453125 Q 7.63916015625 0.79541015625 7.658203125 0.7210693359375 Q 7.67724609375 0.646728515625 7.67724609375 0.545654296875 Q 7.67724609375 0.43359375 7.650146484375 0.3460693359375 Q 7.623046875 0.258544921875 7.5706787109375 0.198486328125 Q 7.518310546875 0.138427734375 7.4410400390625 0.1072998046875 Q 7.36376953125 0.076171875 7.263427734375 0.076171875 Q 7.24365234375 0.076171875 7.21875 0.0772705078125 Q 7.19384765625 0.078369140625 7.1693115234375 0.0794677734375 Q 7.144775390625 0.08056640625 7.1231689453125 0.0823974609375 Q 7.1015625 0.084228515625 7.087646484375 0.0849609375 M 6.92724609375 0.01904296875 Q 6.944091796875 0.019775390625 6.958740234375 0.0205078125 Q 6.97119140625 0.021240234375 6.984375 0.0216064453125 Q 6.99755859375 0.02197265625 7.005615234375 0.02197265625 Q 7.01953125 0.02197265625 7.0521240234375 0.0205078125 Q 7.084716796875 0.01904296875 7.12646484375 0.017578125 Q 7.168212890625 0.01611328125 7.2132568359375 0.0146484375 Q 7.25830078125 0.01318359375 7.2978515625 0.01318359375 Q 7.404052734375 0.01318359375 7.5 0.03955078125 Q 7.595947265625 0.06591796875 7.66845703125 0.1259765625 Q 7.740966796875 0.18603515625 7.783447265625 0.283447265625 Q 7.825927734375 0.380859375 7.825927734375 0.52294921875 Q 7.825927734375 0.624755859375 7.8035888671875 0.7060546875 Q 7.78125 0.787353515625 7.740966796875 0.849609375 Q 7.70068359375 0.911865234375 7.6446533203125 0.9561767578125 Q 7.588623046875 1.00048828125 7.5208740234375 1.029052734375 Q 7.453125 1.0576171875 7.376220703125 1.07080078125 Q 7.29931640625 1.083984375 7.21728515625 1.083984375 Q 7.18798828125 1.083984375 7.1466064453125 1.0821533203125 Q 7.105224609375 1.080322265625 7.0634765625 1.078125 Q 7.021728515625 1.075927734375 6.9847412109375 1.0740966796875 Q 6.94775390625 1.072265625 6.92724609375 1.072265625 L 6.92724609375 1.0693359375 Q 6.931640625 1.053955078125 6.9356689453125 1.03125 Q 6.939697265625 1.008544921875 6.942626953125 0.974853515625 Q 6.945556640625 0.941162109375 6.947021484375 0.8946533203125 Q 6.948486328125 0.84814453125 6.948486328125 0.785888671875 L 6.948486328125 0.30908203125 Q 6.948486328125 0.246826171875 6.947021484375 0.1995849609375 Q 6.945556640625 0.15234375 6.942626953125 0.1182861328125 Q 6.939697265625 0.084228515625 6.9356689453125 0.060791015625 Q 6.931640625 0.037353515625 6.92724609375 0.02197265625 L 6.92724609375 0.01904296875" fill="#ffffff" fill-rule="nonzero"></path></g><g><path d=" M 0.01875 1.4408559570312496 L 0.17375000000000002 1.8783559570312496 L 0.21125 1.8783559570312496 L 0.330625 1.5364809570312497 L 0.33375 1.5364809570312497 L 0.449375 1.8783559570312496 L 0.48625 1.8783559570312496 L 0.64125 1.4408559570312496 L 0.6125 1.4408559570312496 L 0.483125 1.8058559570312496 L 0.480625 1.8058559570312496 L 0.35875 1.4408559570312496 L 0.33187500000000003 1.4408559570312496 L 0.20750000000000002 1.8039809570312495 L 0.20500000000000002 1.8039809570312495 L 0.07625 1.4408559570312496 L 0.01875 1.4408559570312496 M 0.7918557739257812 1.6608559570312496 L 1.0537307739257813 1.6608559570312496 L 1.0537307739257813 1.8783559570312496 L 1.1106057739257813 1.8783559570312496 L 1.1106057739257813 1.4408559570312496 L 1.0537307739257813 1.4408559570312496 L 1.0537307739257813 1.6321059570312495 L 0.7918557739257812 1.6321059570312495 L 0.7918557739257812 1.4408559570312496 L 0.7349807739257812 1.4408559570312496 L 0.7349807739257812 1.8783559570312496 L 0.7918557739257812 1.8783559570312496 L 0.7918557739257812 1.6608559570312496 M 1.26060791015625 1.4408559570312496 L 1.26060791015625 1.8783559570312496 L 1.54310791015625 1.8783559570312496 L 1.54310791015625 1.8439809570312495 L 1.31748291015625 1.8439809570312495 L 1.31748291015625 1.6608559570312496 L 1.51123291015625 1.6608559570312496 L 1.51123291015625 1.6321059570312495 L 1.31748291015625 1.6321059570312495 L 1.31748291015625 1.4752309570312496 L 1.54310791015625 1.4752309570312496 L 1.54310791015625 1.4408559570312496 L 1.26060791015625 1.4408559570312496 M 1.6368515014648437 1.4408559570312496 L 1.6368515014648437 1.8783559570312496 L 1.6937265014648437 1.8783559570312496 L 1.6937265014648437 1.6852309570312496 L 1.7212265014648438 1.6852309570312496 Q 1.7387265014648436 1.6852309570312496 1.7502890014648438 1.6883559570312496 Q 1.7618515014648437 1.6914809570312497 1.7712265014648438 1.6989809570312495 Q 1.7806015014648438 1.7064809570312496 1.7887265014648437 1.7183559570312497 Q 1.7968515014648438 1.7302309570312495 1.8081015014648438 1.7477309570312496 L 1.8574765014648438 1.8208559570312495 Q 1.8668515014648437 1.8352309570312495 1.8759140014648437 1.8471059570312496 Q 1.8849765014648439 1.8589809570312497 1.8956015014648437 1.8674184570312495 Q 1.9062265014648436 1.8758559570312496 1.9196640014648438 1.8808559570312495 Q 1.9331015014648438 1.8858559570312496 1.9518515014648439 1.8858559570312496 Q 1.9656015014648438 1.8858559570312496 1.9743515014648438 1.8846059570312497 Q 1.9831015014648439 1.8833559570312495 1.9918515014648437 1.8783559570312496 L 1.9918515014648437 1.8552309570312495 Q 1.9887265014648436 1.8558559570312496 1.9856015014648438 1.8561684570312496 Q 1.9824765014648438 1.8564809570312495 1.9793515014648437 1.8564809570312495 Q 1.9662265014648437 1.8564809570312495 1.956226501464844 1.8527309570312496 Q 1.9462265014648437 1.8489809570312497 1.9374765014648436 1.8417934570312495 Q 1.9287265014648438 1.8346059570312496 1.9206015014648439 1.8242934570312497 Q 1.9124765014648437 1.8139809570312495 1.9037265014648437 1.8008559570312497 Q 1.8774765014648438 1.7627309570312495 1.8631015014648438 1.7399184570312496 Q 1.8487265014648437 1.7171059570312495 1.8402890014648436 1.7046059570312495 Q 1.8318515014648438 1.6921059570312496 1.8265390014648437 1.6864809570312496 Q 1.8212265014648437 1.6808559570312496 1.8137265014648438 1.6771059570312497 L 1.8074765014648437 1.6739809570312496 L 1.8074765014648437 1.6714809570312497 Q 1.8374765014648438 1.6696059570312496 1.8590390014648437 1.6583559570312496 Q 1.8806015014648438 1.6471059570312496 1.8943515014648438 1.6302309570312497 Q 1.9081015014648437 1.6133559570312497 1.9143515014648438 1.5936684570312496 Q 1.9206015014648439 1.5739809570312495 1.9206015014648439 1.5552309570312497 Q 1.9206015014648439 1.5383559570312495 1.9140390014648436 1.5183559570312495 Q 1.9074765014648438 1.4983559570312495 1.8915390014648437 1.4811684570312496 Q 1.8756015014648437 1.4639809570312496 1.8481015014648436 1.4524184570312495 Q 1.8206015014648438 1.4408559570312496 1.7787265014648437 1.4408559570312496 L 1.6368515014648437 1.4408559570312496 M 1.6937265014648437 1.4683559570312497 L 1.7568515014648438 1.4683559570312497 Q 1.7806015014648438 1.4683559570312497 1.7996640014648437 1.4752309570312496 Q 1.8187265014648437 1.4821059570312496 1.8324765014648436 1.4942934570312496 Q 1.8462265014648438 1.5064809570312496 1.8534140014648437 1.5233559570312496 Q 1.8606015014648438 1.5402309570312496 1.8606015014648438 1.5602309570312496 Q 1.8606015014648438 1.5771059570312496 1.8540390014648438 1.5942934570312497 Q 1.8474765014648438 1.6114809570312496 1.8343515014648437 1.6255434570312497 Q 1.8212265014648437 1.6396059570312496 1.8021640014648437 1.6483559570312496 Q 1.7831015014648437 1.6571059570312496 1.7581015014648438 1.6571059570312496 L 1.6937265014648437 1.6571059570312496 L 1.6937265014648437 1.4683559570312497 M 2.085612487792969 1.4408559570312496 L 2.085612487792969 1.8783559570312496 L 2.3681124877929687 1.8783559570312496 L 2.3681124877929687 1.8439809570312495 L 2.1424874877929687 1.8439809570312495 L 2.1424874877929687 1.6608559570312496 L 2.336237487792969 1.6608559570312496 L 2.336237487792969 1.6321059570312495 L 2.1424874877929687 1.6321059570312495 L 2.1424874877929687 1.4752309570312496 L 2.3681124877929687 1.4752309570312496 L 2.3681124877929687 1.4408559570312496 L 2.085612487792969 1.4408559570312496 M 2.7374658203125 1.6608559570312496 L 2.9993408203125 1.6608559570312496 L 2.9993408203125 1.8783559570312496 L 3.0562158203125 1.8783559570312496 L 3.0562158203125 1.4408559570312496 L 2.9993408203125 1.4408559570312496 L 2.9993408203125 1.6321059570312495 L 2.7374658203125 1.6321059570312495 L 2.7374658203125 1.4408559570312496 L 2.6805908203125 1.4408559570312496 L 2.6805908203125 1.8783559570312496 L 2.7374658203125 1.8783559570312496 L 2.7374658203125 1.6608559570312496 M 3.206217956542969 1.4408559570312496 L 3.206217956542969 1.8783559570312496 L 3.4887179565429687 1.8783559570312496 L 3.4887179565429687 1.8439809570312495 L 3.2630929565429687 1.8439809570312495 L 3.2630929565429687 1.6608559570312496 L 3.456842956542969 1.6608559570312496 L 3.456842956542969 1.6321059570312495 L 3.2630929565429687 1.6321059570312495 L 3.2630929565429687 1.4752309570312496 L 3.4887179565429687 1.4752309570312496 L 3.4887179565429687 1.4408559570312496 L 3.206217956542969 1.4408559570312496 M 3.8255865478515627 1.7496059570312497 L 3.8855865478515623 1.8783559570312496 L 3.9462115478515627 1.8783559570312496 L 3.7424615478515624 1.4408559570312496 L 3.7112115478515624 1.4408559570312496 L 3.5262115478515623 1.8783559570312496 L 3.5549615478515624 1.8783559570312496 L 3.6099615478515625 1.7496059570312497 L 3.8255865478515627 1.7496059570312497 M 3.8124615478515627 1.7214809570312495 L 3.6218365478515624 1.7214809570312495 L 3.7118365478515627 1.5108559570312496 L 3.7143365478515626 1.5108559570312496 L 3.8124615478515627 1.7214809570312495 M 4.039958190917969 1.8783559570312496 L 4.039958190917969 1.4408559570312496 L 4.096833190917969 1.4408559570312496 L 4.096833190917969 1.8439809570312495 L 4.322458190917969 1.8439809570312495 L 4.322458190917969 1.8783559570312496 L 4.039958190917969 1.8783559570312496 M 4.478093566894532 1.8783559570312496 L 4.478093566894532 1.4752309570312496 L 4.645593566894531 1.4752309570312496 L 4.645593566894531 1.4408559570312496 L 4.253718566894531 1.4408559570312496 L 4.253718566894531 1.4752309570312496 L 4.421218566894531 1.4752309570312496 L 4.421218566894531 1.8783559570312496 L 4.478093566894532 1.8783559570312496 M 4.789963684082031 1.6608559570312496 L 5.051838684082031 1.6608559570312496 L 5.051838684082031 1.8783559570312496 L 5.108713684082031 1.8783559570312496 L 5.108713684082031 1.4408559570312496 L 5.051838684082031 1.4408559570312496 L 5.051838684082031 1.6321059570312495 L 4.789963684082031 1.6321059570312495 L 4.789963684082031 1.4408559570312496 L 4.733088684082031 1.4408559570312496 L 4.733088684082031 1.8783559570312496 L 4.789963684082031 1.8783559570312496 L 4.789963684082031 1.6608559570312496 M 5.519950561523437 1.4408559570312496 L 5.477450561523438 1.4408559570312496 L 5.477450561523438 1.8783559570312496 L 5.5049505615234375 1.8783559570312496 L 5.5049505615234375 1.5214809570312495 L 5.507450561523438 1.5214809570312495 L 5.700575561523437 1.8858559570312496 L 5.711825561523438 1.8858559570312496 L 5.9093255615234375 1.5239809570312497 L 5.911825561523438 1.5239809570312497 L 5.911825561523438 1.8783559570312496 L 5.968700561523438 1.8783559570312496 L 5.968700561523438 1.4408559570312496 L 5.925575561523438 1.4408559570312496 L 5.723075561523437 1.8164809570312497 L 5.720575561523438 1.8164809570312497 L 5.519950561523437 1.4408559570312496 M 6.118701171875 1.4408559570312496 L 6.118701171875 1.8783559570312496 L 6.401201171875 1.8783559570312496 L 6.401201171875 1.8439809570312495 L 6.175576171875 1.8439809570312495 L 6.175576171875 1.6608559570312496 L 6.369326171875 1.6608559570312496 L 6.369326171875 1.6321059570312495 L 6.175576171875 1.6321059570312495 L 6.175576171875 1.4752309570312496 L 6.401201171875 1.4752309570312496 L 6.401201171875 1.4408559570312496 L 6.118701171875 1.4408559570312496 M 6.494944763183594 1.4408559570312496 L 6.494944763183594 1.8783559570312496 L 6.777444763183594 1.8783559570312496 L 6.777444763183594 1.8439809570312495 L 6.551819763183594 1.8439809570312495 L 6.551819763183594 1.6608559570312496 L 6.745569763183593 1.6608559570312496 L 6.745569763183593 1.6321059570312495 L 6.551819763183594 1.6321059570312495 L 6.551819763183594 1.4752309570312496 L 6.777444763183594 1.4752309570312496 L 6.777444763183594 1.4408559570312496 L 6.494944763183594 1.4408559570312496 M 7.033063354492188 1.8783559570312496 L 7.033063354492188 1.4752309570312496 L 7.200563354492187 1.4752309570312496 L 7.200563354492187 1.4408559570312496 L 6.808688354492188 1.4408559570312496 L 6.808688354492188 1.4752309570312496 L 6.976188354492187 1.4752309570312496 L 6.976188354492187 1.8783559570312496 L 7.033063354492188 1.8783559570312496 M 7.236183471679688 1.7677309570312496 Q 7.2374334716796875 1.7946059570312496 7.250245971679687 1.8164809570312497 Q 7.263058471679687 1.8383559570312495 7.285245971679688 1.8536684570312496 Q 7.307433471679688 1.8689809570312497 7.337433471679687 1.8774184570312495 Q 7.367433471679687 1.8858559570312496 7.403058471679688 1.8858559570312496 Q 7.439308471679688 1.8858559570312496 7.468370971679687 1.8771059570312496 Q 7.497433471679687 1.8683559570312496 7.518058471679687 1.8521059570312495 Q 7.538683471679687 1.8358559570312496 7.5499334716796875 1.8127309570312495 Q 7.561183471679687 1.7896059570312497 7.561183471679687 1.7614809570312495 Q 7.561183471679687 1.7227309570312497 7.541808471679688 1.6980434570312495 Q 7.522433471679688 1.6733559570312495 7.4933709716796875 1.6567934570312497 Q 7.464308471679687 1.6402309570312497 7.430245971679687 1.6289809570312497 Q 7.396183471679688 1.6177309570312497 7.367120971679688 1.6052309570312495 Q 7.3380584716796875 1.5927309570312496 7.318683471679687 1.5764809570312495 Q 7.299308471679687 1.5602309570312496 7.299308471679687 1.5333559570312496 Q 7.299308471679687 1.5183559570312495 7.3058709716796875 1.5052309570312497 Q 7.312433471679688 1.4921059570312496 7.325245971679688 1.4824184570312495 Q 7.3380584716796875 1.4727309570312497 7.356808471679687 1.4667934570312495 Q 7.375558471679687 1.4608559570312496 7.399933471679687 1.4608559570312496 Q 7.4405584716796875 1.4608559570312496 7.468995971679687 1.4780434570312495 Q 7.497433471679687 1.4952309570312496 7.502433471679687 1.5321059570312496 L 7.544933471679688 1.5321059570312496 Q 7.5411834716796875 1.5089809570312496 7.528058471679688 1.4905434570312495 Q 7.514933471679687 1.4721059570312496 7.494933471679688 1.4592934570312495 Q 7.474933471679687 1.4464809570312496 7.449620971679687 1.4399184570312495 Q 7.424308471679687 1.4333559570312495 7.396808471679687 1.4333559570312495 Q 7.368058471679688 1.4333559570312495 7.342120971679687 1.4408559570312496 Q 7.316183471679688 1.4483559570312496 7.296495971679687 1.4627309570312494 Q 7.276808471679687 1.4771059570312497 7.265245971679687 1.4989809570312496 Q 7.253683471679688 1.5208559570312497 7.253683471679688 1.5489809570312496 Q 7.253683471679688 1.5858559570312496 7.272433471679688 1.6083559570312496 Q 7.2911834716796875 1.6308559570312495 7.319620971679687 1.6458559570312497 Q 7.348058471679687 1.6608559570312496 7.381183471679687 1.6714809570312497 Q 7.414308471679687 1.6821059570312495 7.442745971679687 1.6955434570312495 Q 7.471183471679687 1.7089809570312495 7.489933471679688 1.7283559570312497 Q 7.508683471679688 1.7477309570312496 7.508683471679688 1.7802309570312496 Q 7.508683471679688 1.8208559570312495 7.478995971679687 1.8396059570312495 Q 7.449308471679688 1.8583559570312496 7.399933471679687 1.8583559570312496 Q 7.3605584716796875 1.8583559570312496 7.336808471679688 1.8480434570312496 Q 7.313058471679687 1.8377309570312497 7.300558471679688 1.8233559570312496 Q 7.288058471679688 1.8089809570312496 7.283683471679687 1.7936684570312496 Q 7.279308471679688 1.7783559570312495 7.278683471679687 1.7677309570312496 L 7.236183471679688 1.7677309570312496 M 8.059293212890625 1.8783559570312496 L 8.059293212890625 1.4752309570312496 L 8.226793212890625 1.4752309570312496 L 8.226793212890625 1.4408559570312496 L 7.834918212890625 1.4408559570312496 L 7.834918212890625 1.4752309570312496 L 8.002418212890625 1.4752309570312496 L 8.002418212890625 1.8783559570312496 L 8.059293212890625 1.8783559570312496 M 8.314288330078124 1.4408559570312496 L 8.314288330078124 1.8783559570312496 L 8.371163330078126 1.8783559570312496 L 8.371163330078126 1.6852309570312496 L 8.398663330078126 1.6852309570312496 Q 8.416163330078126 1.6852309570312496 8.427725830078124 1.6883559570312496 Q 8.439288330078124 1.6914809570312497 8.448663330078125 1.6989809570312495 Q 8.458038330078125 1.7064809570312496 8.466163330078125 1.7183559570312497 Q 8.474288330078124 1.7302309570312495 8.485538330078125 1.7477309570312496 L 8.534913330078124 1.8208559570312495 Q 8.544288330078125 1.8352309570312495 8.553350830078125 1.8471059570312496 Q 8.562413330078124 1.8589809570312497 8.573038330078125 1.8674184570312495 Q 8.583663330078124 1.8758559570312496 8.597100830078125 1.8808559570312495 Q 8.610538330078125 1.8858559570312496 8.629288330078126 1.8858559570312496 Q 8.643038330078125 1.8858559570312496 8.651788330078125 1.8846059570312497 Q 8.660538330078126 1.8833559570312495 8.669288330078125 1.8783559570312496 L 8.669288330078125 1.8552309570312495 Q 8.666163330078126 1.8558559570312496 8.663038330078125 1.8561684570312496 Q 8.659913330078124 1.8564809570312495 8.656788330078125 1.8564809570312495 Q 8.643663330078125 1.8564809570312495 8.633663330078125 1.8527309570312496 Q 8.623663330078125 1.8489809570312497 8.614913330078124 1.8417934570312495 Q 8.606163330078125 1.8346059570312496 8.598038330078126 1.8242934570312497 Q 8.589913330078126 1.8139809570312495 8.581163330078125 1.8008559570312497 Q 8.554913330078126 1.7627309570312495 8.540538330078125 1.7399184570312496 Q 8.526163330078125 1.7171059570312495 8.517725830078126 1.7046059570312495 Q 8.509288330078125 1.6921059570312496 8.503975830078126 1.6864809570312496 Q 8.498663330078125 1.6808559570312496 8.491163330078125 1.6771059570312497 L 8.484913330078125 1.6739809570312496 L 8.484913330078125 1.6714809570312497 Q 8.514913330078125 1.6696059570312496 8.536475830078125 1.6583559570312496 Q 8.558038330078125 1.6471059570312496 8.571788330078125 1.6302309570312497 Q 8.585538330078125 1.6133559570312497 8.591788330078124 1.5936684570312496 Q 8.598038330078126 1.5739809570312495 8.598038330078126 1.5552309570312497 Q 8.598038330078126 1.5383559570312495 8.591475830078124 1.5183559570312495 Q 8.584913330078125 1.4983559570312495 8.568975830078125 1.4811684570312496 Q 8.553038330078126 1.4639809570312496 8.525538330078126 1.4524184570312495 Q 8.498038330078124 1.4408559570312496 8.456163330078125 1.4408559570312496 L 8.314288330078124 1.4408559570312496 M 8.371163330078126 1.4683559570312497 L 8.434288330078125 1.4683559570312497 Q 8.458038330078125 1.4683559570312497 8.477100830078125 1.4752309570312496 Q 8.496163330078126 1.4821059570312496 8.509913330078126 1.4942934570312496 Q 8.523663330078126 1.5064809570312496 8.530850830078125 1.5233559570312496 Q 8.538038330078125 1.5402309570312496 8.538038330078125 1.5602309570312496 Q 8.538038330078125 1.5771059570312496 8.531475830078126 1.5942934570312497 Q 8.524913330078125 1.6114809570312496 8.511788330078126 1.6255434570312497 Q 8.498663330078125 1.6396059570312496 8.479600830078125 1.6483559570312496 Q 8.460538330078125 1.6571059570312496 8.435538330078124 1.6571059570312496 L 8.371163330078126 1.6571059570312496 L 8.371163330078126 1.4683559570312497 M 8.73804931640625 1.4408559570312496 L 8.73804931640625 1.7096059570312496 Q 8.73804931640625 1.7352309570312496 8.74304931640625 1.7661684570312497 Q 8.74804931640625 1.7971059570312495 8.76679931640625 1.8236684570312496 Q 8.78554931640625 1.8502309570312496 8.82242431640625 1.8680434570312496 Q 8.85929931640625 1.8858559570312496 8.92304931640625 1.8858559570312496 Q 8.96304931640625 1.8858559570312496 8.99398681640625 1.8733559570312497 Q 9.02492431640625 1.8608559570312495 9.04586181640625 1.8389809570312496 Q 9.06679931640625 1.8171059570312496 9.07742431640625 1.7880434570312496 Q 9.08804931640625 1.7589809570312496 9.08804931640625 1.7258559570312495 L 9.08804931640625 1.4408559570312496 L 9.06054931640625 1.4408559570312496 L 9.06054931640625 1.7052309570312496 Q 9.06054931640625 1.7189809570312495 9.05992431640625 1.7330434570312496 Q 9.05929931640625 1.7471059570312495 9.05617431640625 1.7611684570312496 Q 9.05304931640625 1.7752309570312497 9.04648681640625 1.7889809570312496 Q 9.03992431640625 1.8027309570312495 9.02742431640625 1.8164809570312497 Q 9.00492431640625 1.8408559570312495 8.97679931640625 1.8496059570312495 Q 8.94867431640625 1.8583559570312496 8.91804931640625 1.8583559570312496 Q 8.89179931640625 1.8583559570312496 8.87148681640625 1.8502309570312496 Q 8.85117431640625 1.8421059570312497 8.83304931640625 1.8258559570312496 Q 8.81867431640625 1.8133559570312496 8.81117431640625 1.8008559570312497 Q 8.80367431640625 1.7883559570312495 8.79992431640625 1.7761684570312495 Q 8.79617431640625 1.7639809570312495 8.79554931640625 1.7514809570312495 Q 8.79492431640625 1.7389809570312496 8.79492431640625 1.7264809570312496 L 8.79492431640625 1.4408559570312496 L 8.73804931640625 1.4408559570312496 M 9.161156005859375 1.7677309570312496 Q 9.162406005859374 1.7946059570312496 9.175218505859375 1.8164809570312497 Q 9.188031005859376 1.8383559570312495 9.210218505859375 1.8536684570312496 Q 9.232406005859374 1.8689809570312497 9.262406005859376 1.8774184570312495 Q 9.292406005859375 1.8858559570312496 9.328031005859375 1.8858559570312496 Q 9.364281005859375 1.8858559570312496 9.393343505859375 1.8771059570312496 Q 9.422406005859376 1.8683559570312496 9.443031005859375 1.8521059570312495 Q 9.463656005859375 1.8358559570312496 9.474906005859374 1.8127309570312495 Q 9.486156005859375 1.7896059570312497 9.486156005859375 1.7614809570312495 Q 9.486156005859375 1.7227309570312497 9.466781005859374 1.6980434570312495 Q 9.447406005859374 1.6733559570312495 9.418343505859376 1.6567934570312497 Q 9.389281005859376 1.6402309570312497 9.355218505859375 1.6289809570312497 Q 9.321156005859375 1.6177309570312497 9.292093505859375 1.6052309570312495 Q 9.263031005859375 1.5927309570312496 9.243656005859375 1.5764809570312495 Q 9.224281005859375 1.5602309570312496 9.224281005859375 1.5333559570312496 Q 9.224281005859375 1.5183559570312495 9.230843505859376 1.5052309570312497 Q 9.237406005859375 1.4921059570312496 9.250218505859374 1.4824184570312495 Q 9.263031005859375 1.4727309570312497 9.281781005859376 1.4667934570312495 Q 9.300531005859375 1.4608559570312496 9.324906005859376 1.4608559570312496 Q 9.365531005859374 1.4608559570312496 9.393968505859375 1.4780434570312495 Q 9.422406005859376 1.4952309570312496 9.427406005859375 1.5321059570312496 L 9.469906005859375 1.5321059570312496 Q 9.466156005859375 1.5089809570312496 9.453031005859375 1.4905434570312495 Q 9.439906005859376 1.4721059570312496 9.419906005859374 1.4592934570312495 Q 9.399906005859375 1.4464809570312496 9.374593505859375 1.4399184570312495 Q 9.349281005859375 1.4333559570312495 9.321781005859375 1.4333559570312495 Q 9.293031005859374 1.4333559570312495 9.267093505859375 1.4408559570312496 Q 9.241156005859375 1.4483559570312496 9.221468505859375 1.4627309570312494 Q 9.201781005859376 1.4771059570312497 9.190218505859375 1.4989809570312496 Q 9.178656005859375 1.5208559570312497 9.178656005859375 1.5489809570312496 Q 9.178656005859375 1.5858559570312496 9.197406005859374 1.6083559570312496 Q 9.216156005859375 1.6308559570312495 9.244593505859376 1.6458559570312497 Q 9.273031005859375 1.6608559570312496 9.306156005859375 1.6714809570312497 Q 9.339281005859375 1.6821059570312495 9.367718505859376 1.6955434570312495 Q 9.396156005859375 1.7089809570312495 9.414906005859375 1.7283559570312497 Q 9.433656005859374 1.7477309570312496 9.433656005859374 1.7802309570312496 Q 9.433656005859374 1.8208559570312495 9.403968505859375 1.8396059570312495 Q 9.374281005859375 1.8583559570312496 9.324906005859376 1.8583559570312496 Q 9.285531005859376 1.8583559570312496 9.261781005859374 1.8480434570312496 Q 9.238031005859375 1.8377309570312497 9.225531005859375 1.8233559570312496 Q 9.213031005859374 1.8089809570312496 9.208656005859375 1.7936684570312496 Q 9.204281005859375 1.7783559570312495 9.203656005859376 1.7677309570312496 L 9.161156005859375 1.7677309570312496 M 9.765531005859375 1.8783559570312496 L 9.765531005859375 1.4752309570312496 L 9.933031005859375 1.4752309570312496 L 9.933031005859375 1.4408559570312496 L 9.541156005859374 1.4408559570312496 L 9.541156005859374 1.4752309570312496 L 9.708656005859375 1.4752309570312496 L 9.708656005859375 1.8783559570312496 L 9.765531005859375 1.8783559570312496" fill="#ffffff" fill-rule="nonzero"></path></g></g><defs><clipPath id="SvgjsClipPath12944"><path d=" M -4.3400726954949755 -1.0308583692318627 h 3.940072695494975 v 3.940072695494975 h -3.940072695494975 Z"></path></clipPath><clipPath id="SvgjsClipPath12942083873e9-bc11-4209-b71a-09a935605a48"><path d=" M -3.8475636085581035 -0.4040728192745716 L -0.8925090869368724 -0.4040728192745716 L -0.8925090869368724 2.282428776305821 L -3.8475636085581035 2.282428776305821 Z"></path></clipPath></defs></svg>